<svg id="visual" viewBox="0 0 450 900" width="450" height="900" xmlns="http://www.w3.org/2000/svg" xmlns:xlink="http://www.w3.org/1999/xlink" version="1.1"><rect x="0" y="0" width="450" height="900" fill="#878787"></rect><path d="M0 251L18.8 282.3C37.7 313.7 75.3 376.3 112.8 387.8C150.3 399.3 187.7 359.7 225.2 349.5C262.7 339.3 300.3 358.7 337.8 351.7C375.3 344.7 412.7 311.3 431.3 294.7L450 278L450 901L431.3 901C412.7 901 375.3 901 337.8 901C300.3 901 262.7 901 225.2 901C187.7 901 150.3 901 112.8 901C75.3 901 37.7 901 18.8 901L0 901Z" fill="#fdba31"></path><path d="M0 261L18.8 272C37.7 283 75.3 305 112.8 307.7C150.3 310.3 187.7 293.7 225.2 309.3C262.7 325 300.3 373 337.8 377.3C375.3 381.7 412.7 342.3 431.3 322.7L450 303L450 901L431.3 901C412.7 901 375.3 901 337.8 901C300.3 901 262.7 901 225.2 901C187.7 901 150.3 901 112.8 901C75.3 901 37.7 901 18.8 901L0 901Z" fill="#ff9e3f"></path><path d="M0 512L18.8 481.7C37.7 451.3 75.3 390.7 112.8 360.7C150.3 330.7 187.7 331.3 225.2 347.5C262.7 363.7 300.3 395.3 337.8 404.2C375.3 413 412.7 399 431.3 392L450 385L450 901L431.3 901C412.7 901 375.3 901 337.8 901C300.3 901 262.7 901 225.2 901C187.7 901 150.3 901 112.8 901C75.3 901 37.7 901 18.8 901L0 901Z" fill="#fc844f"></path><path d="M0 456L18.8 472C37.7 488 75.3 520 112.8 509.5C150.3 499 187.7 446 225.2 420.2C262.7 394.3 300.3 395.7 337.8 399C375.3 402.3 412.7 407.7 431.3 410.3L450 413L450 901L431.3 901C412.7 901 375.3 901 337.8 901C300.3 901 262.7 901 225.2 901C187.7 901 150.3 901 112.8 901C75.3 901 37.7 901 18.8 901L0 901Z" fill="#ef6d5e"></path><path d="M0 476L18.8 468.5C37.7 461 75.3 446 112.8 445.7C150.3 445.3 187.7 459.7 225.2 459C262.7 458.3 300.3 442.7 337.8 443.7C375.3 444.7 412.7 462.3 431.3 471.2L450 480L450 901L431.3 901C412.7 901 375.3 901 337.8 901C300.3 901 262.7 901 225.2 901C187.7 901 150.3 901 112.8 901C75.3 901 37.7 901 18.8 901L0 901Z" fill="#db5c6b"></path><path d="M0 505L18.8 507.3C37.7 509.7 75.3 514.3 112.8 529.2C150.3 544 187.7 569 225.2 579.5C262.7 590 300.3 586 337.8 568.7C375.3 551.3 412.7 520.7 431.3 505.3L450 490L450 901L431.3 901C412.7 901 375.3 901 337.8 901C300.3 901 262.7 901 225.2 901C187.7 901 150.3 901 112.8 901C75.3 901 37.7 901 18.8 901L0 901Z" fill="#c15074"></path><path d="M0 624L18.8 624C37.7 624 75.3 624 112.8 627.5C150.3 631 187.7 638 225.2 642.5C262.7 647 300.3 649 337.8 648.7C375.3 648.3 412.7 645.7 431.3 644.3L450 643L450 901L431.3 901C412.7 901 375.3 901 337.8 901C300.3 901 262.7 901 225.2 901C187.7 901 150.3 901 112.8 901C75.3 901 37.7 901 18.8 901L0 901Z" fill="#a24978"></path><path d="M0 648L18.8 646.7C37.7 645.3 75.3 642.7 112.8 633.8C150.3 625 187.7 610 225.2 611.7C262.7 613.3 300.3 631.7 337.8 636.5C375.3 641.3 412.7 632.7 431.3 628.3L450 624L450 901L431.3 901C412.7 901 375.3 901 337.8 901C300.3 901 262.7 901 225.2 901C187.7 901 150.3 901 112.8 901C75.3 901 37.7 901 18.8 901L0 901Z" fill="#814377"></path><path d="M0 666L18.8 662.7C37.7 659.3 75.3 652.7 112.8 662.7C150.3 672.7 187.7 699.3 225.2 701.7C262.7 704 300.3 682 337.8 681.2C375.3 680.3 412.7 700.7 431.3 710.8L450 721L450 901L431.3 901C412.7 901 375.3 901 337.8 901C300.3 901 262.7 901 225.2 901C187.7 901 150.3 901 112.8 901C75.3 901 37.7 901 18.8 901L0 901Z" fill="#603e70"></path><path d="M0 769L18.8 761.3C37.7 753.7 75.3 738.3 112.8 736C150.3 733.7 187.7 744.3 225.2 749.8C262.7 755.3 300.3 755.7 337.8 754C375.3 752.3 412.7 748.7 431.3 746.8L450 745L450 901L431.3 901C412.7 901 375.3 901 337.8 901C300.3 901 262.7 901 225.2 901C187.7 901 150.3 901 112.8 901C75.3 901 37.7 901 18.8 901L0 901Z" fill="#403763"></path><path d="M0 821L18.8 813C37.7 805 75.3 789 112.8 788.3C150.3 787.7 187.7 802.3 225.2 810C262.7 817.7 300.3 818.3 337.8 813C375.3 807.7 412.7 796.3 431.3 790.7L450 785L450 901L431.3 901C412.7 901 375.3 901 337.8 901C300.3 901 262.7 901 225.2 901C187.7 901 150.3 901 112.8 901C75.3 901 37.7 901 18.8 901L0 901Z" fill="#232f52"></path><path d="M0 824L18.8 826.5C37.7 829 75.3 834 112.8 831.7C150.3 829.3 187.7 819.7 225.2 816C262.7 812.3 300.3 814.7 337.8 817C375.3 819.3 412.7 821.7 431.3 822.8L450 824L450 901L431.3 901C412.7 901 375.3 901 337.8 901C300.3 901 262.7 901 225.2 901C187.7 901 150.3 901 112.8 901C75.3 901 37.7 901 18.8 901L0 901Z" fill="#0a253e"></path></svg>