<svg id="visual" viewBox="0 0 900 1280" width="900" height="1280" xmlns="http://www.w3.org/2000/svg" xmlns:xlink="http://www.w3.org/1999/xlink" version="1.1"><rect x="0" y="0" width="900" height="1280" fill="#001220"></rect><defs><linearGradient id="grad1_0" x1="0%" y1="0%" x2="100%" y2="100%"><stop offset="30%" stop-color="#001220" stop-opacity="1"></stop><stop offset="70%" stop-color="#001220" stop-opacity="1"></stop></linearGradient></defs><defs><linearGradient id="grad2_0" x1="0%" y1="0%" x2="100%" y2="100%"><stop offset="30%" stop-color="#001220" stop-opacity="1"></stop><stop offset="70%" stop-color="#001220" stop-opacity="1"></stop></linearGradient></defs><g transform="translate(900, 0)"><path d="M0 704.1C-91 690.9 -182 677.7 -267.5 645.8C-353 613.9 -432.9 563.2 -497.9 497.9C-562.9 432.6 -613 352.5 -644.9 267.1C-676.8 181.7 -690.4 90.8 -704.1 0L0 0Z" fill="#FBAE3C"></path></g><g transform="translate(0, 1280)"><path d="M0 -704.1C94 -696.7 188 -689.2 269.5 -650.5C351 -611.8 420 -541.8 468.8 -468.8C517.6 -395.8 546.2 -319.7 582 -241.1C617.9 -162.4 661 -81.2 704.1 0L0 0Z" fill="#FBAE3C"></path></g></svg>