<svg id="visual" viewBox="0 0 900 1280" width="900" height="1280" xmlns="http://www.w3.org/2000/svg" xmlns:xlink="http://www.w3.org/1999/xlink" version="1.1"><rect x="0" y="0" width="900" height="1280" fill="#878787"></rect><path d="M0 869L25 842C50 815 100 761 150 741C200 721 250 735 300 706.7C350 678.3 400 607.7 450 559.2C500 510.7 550 484.3 600 456.5C650 428.7 700 399.3 750 476.3C800 553.3 850 736.7 875 828.3L900 920L900 1281L875 1281C850 1281 800 1281 750 1281C700 1281 650 1281 600 1281C550 1281 500 1281 450 1281C400 1281 350 1281 300 1281C250 1281 200 1281 150 1281C100 1281 50 1281 25 1281L0 1281Z" fill="#fdba31"></path><path d="M0 880L25 830.2C50 780.3 100 680.7 150 670.8C200 661 250 741 300 755C350 769 400 717 450 689.2C500 661.3 550 657.7 600 660.7C650 663.7 700 673.3 750 668.7C800 664 850 645 875 635.5L900 626L900 1281L875 1281C850 1281 800 1281 750 1281C700 1281 650 1281 600 1281C550 1281 500 1281 450 1281C400 1281 350 1281 300 1281C250 1281 200 1281 150 1281C100 1281 50 1281 25 1281L0 1281Z" fill="#ff9e3f"></path><path d="M0 502L25 496.3C50 490.7 100 479.3 150 491.3C200 503.3 250 538.7 300 575.2C350 611.7 400 649.3 450 654.5C500 659.7 550 632.3 600 605.8C650 579.3 700 553.7 750 611C800 668.3 850 808.7 875 878.8L900 949L900 1281L875 1281C850 1281 800 1281 750 1281C700 1281 650 1281 600 1281C550 1281 500 1281 450 1281C400 1281 350 1281 300 1281C250 1281 200 1281 150 1281C100 1281 50 1281 25 1281L0 1281Z" fill="#fc844f"></path><path d="M0 1013L25 942.5C50 872 100 731 150 692C200 653 250 716 300 785.7C350 855.3 400 931.7 450 959.3C500 987 550 966 600 888.7C650 811.3 700 677.7 750 609.8C800 542 850 540 875 539L900 538L900 1281L875 1281C850 1281 800 1281 750 1281C700 1281 650 1281 600 1281C550 1281 500 1281 450 1281C400 1281 350 1281 300 1281C250 1281 200 1281 150 1281C100 1281 50 1281 25 1281L0 1281Z" fill="#ef6d5e"></path><path d="M0 914L25 884.5C50 855 100 796 150 769.7C200 743.3 250 749.7 300 789.8C350 830 400 904 450 940.8C500 977.7 550 977.3 600 948.2C650 919 700 861 750 821C800 781 850 759 875 748L900 737L900 1281L875 1281C850 1281 800 1281 750 1281C700 1281 650 1281 600 1281C550 1281 500 1281 450 1281C400 1281 350 1281 300 1281C250 1281 200 1281 150 1281C100 1281 50 1281 25 1281L0 1281Z" fill="#db5c6b"></path><path d="M0 690L25 696.3C50 702.7 100 715.3 150 733.5C200 751.7 250 775.3 300 805.3C350 835.3 400 871.7 450 858C500 844.3 550 780.7 600 737C650 693.3 700 669.7 750 698.8C800 728 850 810 875 851L900 892L900 1281L875 1281C850 1281 800 1281 750 1281C700 1281 650 1281 600 1281C550 1281 500 1281 450 1281C400 1281 350 1281 300 1281C250 1281 200 1281 150 1281C100 1281 50 1281 25 1281L0 1281Z" fill="#c15074"></path><path d="M0 750L25 807.2C50 864.3 100 978.7 150 1025.3C200 1072 250 1051 300 988.8C350 926.7 400 823.3 450 830.3C500 837.3 550 954.7 600 990.7C650 1026.7 700 981.3 750 951C800 920.7 850 905.3 875 897.7L900 890L900 1281L875 1281C850 1281 800 1281 750 1281C700 1281 650 1281 600 1281C550 1281 500 1281 450 1281C400 1281 350 1281 300 1281C250 1281 200 1281 150 1281C100 1281 50 1281 25 1281L0 1281Z" fill="#a24978"></path><path d="M0 935L25 936C50 937 100 939 150 940C200 941 250 941 300 939.8C350 938.7 400 936.3 450 919.5C500 902.7 550 871.3 600 861.3C650 851.3 700 862.7 750 862.8C800 863 850 852 875 846.5L900 841L900 1281L875 1281C850 1281 800 1281 750 1281C700 1281 650 1281 600 1281C550 1281 500 1281 450 1281C400 1281 350 1281 300 1281C250 1281 200 1281 150 1281C100 1281 50 1281 25 1281L0 1281Z" fill="#814377"></path><path d="M0 1136L25 1132.5C50 1129 100 1122 150 1120.2C200 1118.3 250 1121.7 300 1104C350 1086.3 400 1047.7 450 1026.7C500 1005.7 550 1002.3 600 1023C650 1043.7 700 1088.3 750 1100.3C800 1112.3 850 1091.7 875 1081.3L900 1071L900 1281L875 1281C850 1281 800 1281 750 1281C700 1281 650 1281 600 1281C550 1281 500 1281 450 1281C400 1281 350 1281 300 1281C250 1281 200 1281 150 1281C100 1281 50 1281 25 1281L0 1281Z" fill="#603e70"></path><path d="M0 989L25 986.8C50 984.7 100 980.3 150 1003.5C200 1026.7 250 1077.3 300 1097.7C350 1118 400 1108 450 1095.2C500 1082.3 550 1066.7 600 1072.5C650 1078.3 700 1105.7 750 1117.2C800 1128.7 850 1124.3 875 1122.2L900 1120L900 1281L875 1281C850 1281 800 1281 750 1281C700 1281 650 1281 600 1281C550 1281 500 1281 450 1281C400 1281 350 1281 300 1281C250 1281 200 1281 150 1281C100 1281 50 1281 25 1281L0 1281Z" fill="#403763"></path><path d="M0 1094L25 1097.3C50 1100.7 100 1107.3 150 1124.2C200 1141 250 1168 300 1180.2C350 1192.3 400 1189.7 450 1179.2C500 1168.7 550 1150.3 600 1144C650 1137.7 700 1143.3 750 1132.7C800 1122 850 1095 875 1081.5L900 1068L900 1281L875 1281C850 1281 800 1281 750 1281C700 1281 650 1281 600 1281C550 1281 500 1281 450 1281C400 1281 350 1281 300 1281C250 1281 200 1281 150 1281C100 1281 50 1281 25 1281L0 1281Z" fill="#232f52"></path><path d="M0 1192L25 1189.7C50 1187.3 100 1182.7 150 1187.5C200 1192.3 250 1206.7 300 1214.2C350 1221.7 400 1222.3 450 1223C500 1223.7 550 1224.3 600 1210.8C650 1197.3 700 1169.7 750 1170.3C800 1171 850 1200 875 1214.5L900 1229L900 1281L875 1281C850 1281 800 1281 750 1281C700 1281 650 1281 600 1281C550 1281 500 1281 450 1281C400 1281 350 1281 300 1281C250 1281 200 1281 150 1281C100 1281 50 1281 25 1281L0 1281Z" fill="#0a253e"></path></svg>