<svg xmlns="http://www.w3.org/2000/svg" xmlns:xlink="http://www.w3.org/1999/xlink" width="330" zoomAndPan="magnify" viewBox="0 0 375 374.999991" height="330" preserveAspectRatio="xMidYMid meet" version="1.0"><defs><g/><clipPath id="d8ee246263"><path d="M 157 199 L 171 199 L 171 212.71875 L 157 212.71875 Z M 157 199 " clip-rule="nonzero"/></clipPath><clipPath id="20b699818e"><path d="M 96.640625 61.21875 L 278 61.21875 L 278 212.71875 L 96.640625 212.71875 Z M 96.640625 61.21875 " clip-rule="nonzero"/></clipPath></defs><path fill="#fdba31" d="M 143.878906 116.042969 L 160.6875 116.042969 L 160.6875 132.859375 L 143.878906 132.859375 Z M 143.878906 116.042969 " fill-opacity="1" fill-rule="evenodd"/><path fill="#0a253e" d="M 189.195312 102.839844 L 202.695312 102.839844 L 202.695312 116.355469 L 189.195312 116.355469 Z M 189.195312 102.839844 " fill-opacity="1" fill-rule="evenodd"/><path fill="#fdba31" d="M 163.089844 135.703125 L 176.589844 135.703125 L 176.589844 149.207031 L 163.089844 149.207031 Z M 163.089844 135.703125 " fill-opacity="1" fill-rule="evenodd"/><path fill="#0a253e" d="M 146.136719 150.414062 L 152.886719 150.414062 L 152.886719 157.164062 L 146.136719 157.164062 Z M 146.136719 150.414062 " fill-opacity="1" fill-rule="evenodd"/><path fill="#0a253e" d="M 140.804688 97.96875 L 147.5625 97.96875 L 147.5625 104.71875 L 140.804688 104.71875 Z M 140.804688 97.96875 " fill-opacity="1" fill-rule="evenodd"/><path fill="#0a253e" d="M 173.8125 116.875 L 180.5625 116.875 L 180.5625 123.625 L 173.8125 123.625 Z M 173.8125 116.875 " fill-opacity="1" fill-rule="evenodd"/><path fill="#0a253e" d="M 209.824219 97.140625 L 216.574219 97.140625 L 216.574219 103.890625 L 209.824219 103.890625 Z M 209.824219 97.140625 " fill-opacity="1" fill-rule="evenodd"/><path fill="#0a253e" d="M 204.257812 84.53125 L 213.738281 84.53125 L 213.738281 94.023438 L 204.257812 94.023438 Z M 204.257812 84.53125 " fill-opacity="1" fill-rule="evenodd"/><path fill="#0a253e" d="M 169.984375 70.429688 L 179.476562 70.429688 L 179.476562 79.910156 L 169.984375 79.910156 Z M 169.984375 70.429688 " fill-opacity="1" fill-rule="evenodd"/><path fill="#0a253e" d="M 192.976562 80.894531 L 199.726562 80.894531 L 199.726562 87.648438 L 192.976562 87.648438 Z M 192.976562 80.894531 " fill-opacity="1" fill-rule="evenodd"/><path fill="#0a253e" d="M 227.230469 101.566406 L 233.980469 101.566406 L 233.980469 108.320312 L 227.230469 108.320312 Z M 227.230469 101.566406 " fill-opacity="1" fill-rule="evenodd"/><path fill="#fdba31" d="M 189.109375 122.816406 L 206.371094 122.816406 L 206.371094 140.082031 L 189.109375 140.082031 Z M 189.109375 122.816406 " fill-opacity="1" fill-rule="evenodd"/><path fill="#fdba31" d="M 153.023438 167.003906 L 172.832031 167.003906 L 172.832031 186.816406 L 153.023438 186.816406 Z M 153.023438 167.003906 " fill-opacity="1" fill-rule="evenodd"/><path fill="#0a253e" d="M 177.855469 154.195312 L 191.355469 154.195312 L 191.355469 167.707031 L 177.855469 167.707031 Z M 177.855469 154.195312 " fill-opacity="1" fill-rule="evenodd"/><path fill="#fdba31" d="M 199.128906 171.796875 L 212.628906 171.796875 L 212.628906 185.304688 L 199.128906 185.304688 Z M 199.128906 171.796875 " fill-opacity="1" fill-rule="evenodd"/><g clip-path="url(#d8ee246263)"><path fill="#0a253e" d="M 157.398438 199.210938 L 170.902344 199.210938 L 170.902344 212.71875 L 157.398438 212.71875 Z M 157.398438 199.210938 " fill-opacity="1" fill-rule="evenodd"/></g><path fill="#0a253e" d="M 209.359375 116.960938 L 222.863281 116.960938 L 222.863281 130.464844 L 209.359375 130.464844 Z M 209.359375 116.960938 " fill-opacity="1" fill-rule="evenodd"/><path fill="#0a253e" d="M 162.820312 153.480469 L 169.570312 153.480469 L 169.570312 160.234375 L 162.820312 160.234375 Z M 162.820312 153.480469 " fill-opacity="1" fill-rule="evenodd"/><path fill="#0a253e" d="M 185.695312 143.585938 L 192.445312 143.585938 L 192.445312 150.335938 L 185.695312 150.335938 Z M 185.695312 143.585938 " fill-opacity="1" fill-rule="evenodd"/><path fill="#0a253e" d="M 179.878906 177.007812 L 191.972656 177.007812 L 191.972656 189.09375 L 179.878906 189.09375 Z M 179.878906 177.007812 " fill-opacity="1" fill-rule="evenodd"/><path fill="#0a253e" d="M 175.992188 201.238281 L 183.996094 201.238281 L 183.996094 209.234375 L 175.992188 209.234375 Z M 175.992188 201.238281 " fill-opacity="1" fill-rule="evenodd"/><path fill="#0a253e" d="M 195.839844 150 L 207.921875 150 L 207.921875 162.085938 L 195.839844 162.085938 Z M 195.839844 150 " fill-opacity="1" fill-rule="evenodd"/><path fill="#0a253e" d="M 210.972656 138.539062 L 223.0625 138.539062 L 223.0625 150.625 L 210.972656 150.625 Z M 210.972656 138.539062 " fill-opacity="1" fill-rule="evenodd"/><path fill="#fdba31" d="M 160.390625 87.839844 L 180.1875 87.839844 L 180.1875 107.644531 L 160.390625 107.644531 Z M 160.390625 87.839844 " fill-opacity="1" fill-rule="evenodd"/><g clip-path="url(#20b699818e)"><path fill="#0a253e" d="M 96.933594 130.496094 C 100.964844 130.386719 104.273438 129.308594 106.828125 127.214844 C 109.355469 125.140625 111.050781 122.296875 111.910156 118.6875 C 112.75 115.0625 113.175781 108.839844 113.230469 100.070312 C 113.28125 91.304688 113.445312 85.515625 113.714844 82.746094 C 114.195312 78.339844 115.054688 74.78125 116.347656 72.097656 C 117.640625 69.433594 119.230469 67.285156 121.109375 65.664062 C 123.019531 64.070312 125.441406 62.835938 128.371094 62.007812 C 130.359375 61.496094 133.617188 61.226562 138.132812 61.226562 L 142.539062 61.226562 L 142.539062 73.601562 L 140.089844 73.601562 C 134.632812 73.601562 131.023438 74.566406 129.222656 76.5625 C 127.445312 78.53125 126.558594 82.910156 126.558594 89.75 C 126.558594 103.523438 126.261719 112.214844 125.671875 115.851562 C 124.738281 121.476562 123.117188 125.804688 120.832031 128.84375 C 118.546875 131.914062 114.96875 134.605469 110.070312 136.96875 C 115.855469 139.386719 120.050781 143.074219 122.652344 148.050781 C 125.238281 153 126.550781 161.148438 126.550781 172.453125 C 126.550781 182.679688 126.625 188.785156 126.847656 190.722656 C 127.28125 194.304688 128.324219 196.8125 130.050781 198.230469 C 131.746094 199.628906 135.105469 200.351562 140.078125 200.351562 L 142.53125 200.351562 L 142.53125 212.726562 L 138.121094 212.726562 C 132.980469 212.726562 129.25 212.300781 126.933594 211.464844 C 123.570312 210.257812 120.800781 208.289062 118.59375 205.597656 C 116.386719 202.878906 114.9375 199.464844 114.292969 195.296875 C 113.644531 191.148438 113.269531 184.347656 113.210938 174.875 C 113.15625 165.433594 112.730469 158.890625 111.890625 155.265625 C 111.03125 151.628906 109.335938 148.785156 106.808594 146.679688 C 104.253906 144.558594 100.945312 143.449219 96.914062 143.371094 L 96.914062 130.515625 Z M 277.851562 130.496094 L 277.851562 143.351562 C 273.820312 143.429688 270.511719 144.539062 267.957031 146.660156 C 265.429688 148.765625 263.730469 151.609375 262.875 155.1875 C 262.042969 158.796875 261.582031 164.980469 261.550781 173.746094 C 261.496094 182.542969 261.339844 188.304688 261.070312 191.101562 C 260.589844 195.566406 259.71875 199.117188 258.4375 201.777344 C 257.144531 204.441406 255.5625 206.5625 253.671875 208.15625 C 251.765625 209.765625 249.34375 210.980469 246.410156 211.808594 C 244.425781 212.398438 241.164062 212.699219 236.652344 212.699219 L 232.234375 212.699219 L 232.234375 200.320312 L 234.683594 200.320312 C 240.144531 200.320312 243.75 199.328125 245.554688 197.359375 C 247.328125 195.394531 248.214844 190.957031 248.214844 184.070312 C 248.214844 170.941406 248.457031 162.597656 248.9375 159.074219 C 249.777344 153.269531 251.464844 148.582031 253.972656 145.089844 C 256.5 141.617188 260.078125 138.894531 264.707031 136.9375 C 258.648438 134.0625 254.40625 130.242188 251.929688 125.480469 C 249.449219 120.714844 248.214844 112.699219 248.214844 101.402344 C 248.214844 91.148438 248.109375 85.042969 247.839844 83.027344 C 247.464844 79.496094 246.441406 77.054688 244.714844 75.65625 C 243.015625 74.289062 239.660156 73.582031 234.683594 73.582031 L 232.234375 73.582031 L 232.234375 61.207031 L 236.652344 61.207031 C 241.792969 61.207031 245.523438 61.613281 247.839844 62.472656 C 251.203125 63.628906 253.972656 65.566406 256.179688 68.277344 C 258.390625 71.015625 259.835938 74.460938 260.480469 78.609375 C 261.128906 82.785156 261.503906 89.585938 261.5625 99.03125 C 261.589844 108.5 262.042969 115.011719 262.882812 118.621094 C 263.742188 122.226562 265.4375 125.074219 267.964844 127.175781 C 270.519531 129.277344 273.828125 130.378906 277.859375 130.484375 Z M 277.851562 130.496094 " fill-opacity="1" fill-rule="nonzero"/></g><g fill="#0a253e" fill-opacity="0.4"><g transform="translate(33.923211, 274.416465)"><g><path d="M 26.1875 0 C 25.6875 0 25.296875 -0.253906 25.015625 -0.765625 L 17.84375 -16.625 C 17.769531 -16.820312 17.632812 -16.921875 17.4375 -16.921875 L 12.125 -16.921875 C 11.894531 -16.921875 11.78125 -16.800781 11.78125 -16.5625 L 11.78125 -0.984375 C 11.78125 -0.328125 11.453125 0 10.796875 0 L 4.546875 0 C 3.890625 0 3.5625 -0.328125 3.5625 -0.984375 L 3.5625 -39.890625 C 3.5625 -40.554688 3.890625 -40.890625 4.546875 -40.890625 L 20.9375 -40.890625 C 23.425781 -40.890625 25.613281 -40.375 27.5 -39.34375 C 29.382812 -38.3125 30.84375 -36.863281 31.875 -35 C 32.90625 -33.132812 33.421875 -30.992188 33.421875 -28.578125 C 33.421875 -25.929688 32.757812 -23.65625 31.4375 -21.75 C 30.113281 -19.84375 28.285156 -18.503906 25.953125 -17.734375 C 25.835938 -17.691406 25.757812 -17.617188 25.71875 -17.515625 C 25.6875 -17.421875 25.707031 -17.335938 25.78125 -17.265625 L 33.484375 -1.171875 C 33.597656 -1.015625 33.65625 -0.835938 33.65625 -0.640625 C 33.65625 -0.441406 33.578125 -0.285156 33.421875 -0.171875 C 33.265625 -0.0546875 33.050781 0 32.78125 0 Z M 12.125 -33.765625 C 11.894531 -33.765625 11.78125 -33.648438 11.78125 -33.421875 L 11.78125 -23.625 C 11.78125 -23.382812 11.894531 -23.265625 12.125 -23.265625 L 19.71875 -23.265625 C 21.351562 -23.265625 22.679688 -23.738281 23.703125 -24.6875 C 24.734375 -25.644531 25.25 -26.90625 25.25 -28.46875 C 25.25 -30.019531 24.734375 -31.289062 23.703125 -32.28125 C 22.679688 -33.269531 21.351562 -33.765625 19.71875 -33.765625 Z M 12.125 -33.765625 "/></g></g></g><g fill="#0a253e" fill-opacity="0.4"><g transform="translate(72.007719, 274.416465)"><g><path d="M 17.5 -6.46875 C 20.0625 -6.59375 22.023438 -7.488281 23.390625 -9.15625 C 23.617188 -9.425781 23.867188 -9.5625 24.140625 -9.5625 C 24.378906 -9.5625 24.597656 -9.46875 24.796875 -9.28125 L 28.109375 -6.0625 C 28.347656 -5.832031 28.46875 -5.597656 28.46875 -5.359375 C 28.46875 -5.085938 28.390625 -4.859375 28.234375 -4.671875 C 26.953125 -3.078125 25.304688 -1.820312 23.296875 -0.90625 C 21.296875 0.0078125 19.109375 0.46875 16.734375 0.46875 C 13.160156 0.46875 10.195312 -0.441406 7.84375 -2.265625 C 5.488281 -4.097656 3.90625 -6.609375 3.09375 -9.796875 C 2.625 -11.503906 2.390625 -13.3125 2.390625 -15.21875 C 2.390625 -17.476562 2.601562 -19.382812 3.03125 -20.9375 C 3.8125 -23.8125 5.375 -26.125 7.71875 -27.875 C 10.070312 -29.625 12.863281 -30.5 16.09375 -30.5 C 19.90625 -30.5 22.925781 -29.367188 25.15625 -27.109375 C 27.394531 -24.859375 28.847656 -21.691406 29.515625 -17.609375 C 29.671875 -16.328125 29.785156 -14.910156 29.859375 -13.359375 C 29.859375 -12.691406 29.53125 -12.359375 28.875 -12.359375 L 10.96875 -12.359375 C 10.726562 -12.359375 10.609375 -12.242188 10.609375 -12.015625 C 10.734375 -11.203125 10.875 -10.597656 11.03125 -10.203125 C 11.414062 -9.003906 12.179688 -8.082031 13.328125 -7.4375 C 14.472656 -6.789062 15.863281 -6.46875 17.5 -6.46875 Z M 15.984375 -23.390625 C 14.734375 -23.390625 13.691406 -23.085938 12.859375 -22.484375 C 12.023438 -21.878906 11.453125 -21.035156 11.140625 -19.953125 C 10.941406 -19.210938 10.828125 -18.722656 10.796875 -18.484375 C 10.753906 -18.253906 10.847656 -18.140625 11.078125 -18.140625 L 21 -18.140625 C 21.195312 -18.140625 21.296875 -18.21875 21.296875 -18.375 C 21.296875 -18.800781 21.21875 -19.25 21.0625 -19.71875 C 20.707031 -20.84375 20.101562 -21.734375 19.25 -22.390625 C 18.394531 -23.054688 17.304688 -23.390625 15.984375 -23.390625 Z M 15.984375 -23.390625 "/></g></g></g><g fill="#0a253e" fill-opacity="0.4"><g transform="translate(106.184693, 274.416465)"><g><path d="M 21.34375 -28.984375 C 21.34375 -29.648438 21.675781 -29.984375 22.34375 -29.984375 L 28.578125 -29.984375 C 29.242188 -29.984375 29.578125 -29.648438 29.578125 -28.984375 L 29.578125 -2.6875 C 29.578125 2.40625 28.117188 6.039062 25.203125 8.21875 C 22.285156 10.394531 18.53125 11.484375 13.9375 11.484375 C 12.65625 11.484375 11.195312 11.390625 9.5625 11.203125 C 8.976562 11.160156 8.6875 10.8125 8.6875 10.15625 L 8.921875 4.71875 C 8.921875 4.414062 9.023438 4.175781 9.234375 4 C 9.453125 3.820312 9.71875 3.769531 10.03125 3.84375 C 11.46875 4.039062 12.65625 4.140625 13.59375 4.140625 C 16.082031 4.140625 17.992188 3.59375 19.328125 2.5 C 20.671875 1.414062 21.34375 -0.328125 21.34375 -2.734375 C 21.34375 -2.859375 21.300781 -2.925781 21.21875 -2.9375 C 21.144531 -2.957031 21.050781 -2.910156 20.9375 -2.796875 C 19.5 -1.242188 17.363281 -0.46875 14.53125 -0.46875 C 12 -0.46875 9.671875 -1.078125 7.546875 -2.296875 C 5.429688 -3.523438 3.925781 -5.5 3.03125 -8.21875 C 2.445312 -10.007812 2.15625 -12.328125 2.15625 -15.171875 C 2.15625 -18.203125 2.503906 -20.671875 3.203125 -22.578125 C 4.023438 -24.941406 5.40625 -26.84375 7.34375 -28.28125 C 9.289062 -29.726562 11.546875 -30.453125 14.109375 -30.453125 C 17.023438 -30.453125 19.300781 -29.578125 20.9375 -27.828125 C 21.050781 -27.703125 21.144531 -27.660156 21.21875 -27.703125 C 21.300781 -27.742188 21.34375 -27.84375 21.34375 -28 Z M 20.875 -10.4375 C 21.1875 -11.601562 21.34375 -13.195312 21.34375 -15.21875 C 21.34375 -16.425781 21.300781 -17.359375 21.21875 -18.015625 C 21.144531 -18.679688 21.015625 -19.304688 20.828125 -19.890625 C 20.472656 -20.941406 19.882812 -21.785156 19.0625 -22.421875 C 18.25 -23.066406 17.242188 -23.390625 16.046875 -23.390625 C 14.878906 -23.390625 13.882812 -23.066406 13.0625 -22.421875 C 12.25 -21.785156 11.644531 -20.941406 11.25 -19.890625 C 10.707031 -18.722656 10.4375 -17.148438 10.4375 -15.171875 C 10.4375 -12.992188 10.671875 -11.4375 11.140625 -10.5 C 11.492188 -9.445312 12.109375 -8.597656 12.984375 -7.953125 C 13.859375 -7.316406 14.894531 -7 16.09375 -7 C 17.34375 -7 18.375 -7.316406 19.1875 -7.953125 C 20.007812 -8.597656 20.570312 -9.425781 20.875 -10.4375 Z M 20.875 -10.4375 "/></g></g></g><g fill="#0a253e" fill-opacity="0.4"><g transform="translate(140.886558, 274.416465)"><g><path d="M 7.578125 -32.84375 C 6.097656 -32.84375 4.890625 -33.296875 3.953125 -34.203125 C 3.023438 -35.117188 2.5625 -36.296875 2.5625 -37.734375 C 2.5625 -39.171875 3.023438 -40.347656 3.953125 -41.265625 C 4.890625 -42.179688 6.097656 -42.640625 7.578125 -42.640625 C 9.097656 -42.640625 10.3125 -42.191406 11.21875 -41.296875 C 12.132812 -40.398438 12.59375 -39.210938 12.59375 -37.734375 C 12.59375 -36.253906 12.132812 -35.066406 11.21875 -34.171875 C 10.3125 -33.285156 9.097656 -32.84375 7.578125 -32.84375 Z M 4.484375 0 C 3.828125 0 3.5 -0.328125 3.5 -0.984375 L 3.5 -28.984375 C 3.5 -29.648438 3.828125 -29.984375 4.484375 -29.984375 L 10.734375 -29.984375 C 11.390625 -29.984375 11.71875 -29.648438 11.71875 -28.984375 L 11.71875 -0.984375 C 11.71875 -0.328125 11.390625 0 10.734375 0 Z M 4.484375 0 "/></g></g></g><g fill="#0a253e" fill-opacity="0.4"><g transform="translate(158.325319, 274.416465)"><g><path d="M 14.984375 0.40625 C 12.378906 0.40625 10.101562 0.0351562 8.15625 -0.703125 C 6.21875 -1.441406 4.722656 -2.472656 3.671875 -3.796875 C 2.617188 -5.117188 2.09375 -6.613281 2.09375 -8.28125 L 2.09375 -8.578125 C 2.09375 -9.234375 2.425781 -9.5625 3.09375 -9.5625 L 8.984375 -9.5625 C 9.640625 -9.5625 9.96875 -9.445312 9.96875 -9.21875 L 9.96875 -8.8125 C 9.96875 -7.957031 10.4375 -7.226562 11.375 -6.625 C 12.3125 -6.019531 13.5 -5.71875 14.9375 -5.71875 C 16.257812 -5.71875 17.328125 -5.96875 18.140625 -6.46875 C 18.953125 -6.976562 19.359375 -7.640625 19.359375 -8.453125 C 19.359375 -9.148438 19.007812 -9.675781 18.3125 -10.03125 C 17.613281 -10.382812 16.46875 -10.753906 14.875 -11.140625 C 12.96875 -11.648438 11.546875 -12.097656 10.609375 -12.484375 C 8.085938 -13.335938 6.085938 -14.382812 4.609375 -15.625 C 3.128906 -16.875 2.390625 -18.664062 2.390625 -21 C 2.390625 -23.875 3.515625 -26.15625 5.765625 -27.84375 C 8.023438 -29.539062 10.984375 -30.390625 14.640625 -30.390625 C 17.128906 -30.390625 19.316406 -29.988281 21.203125 -29.1875 C 23.085938 -28.394531 24.546875 -27.28125 25.578125 -25.84375 C 26.609375 -24.40625 27.125 -22.769531 27.125 -20.9375 C 27.125 -20.738281 27.035156 -20.570312 26.859375 -20.4375 C 26.679688 -20.300781 26.4375 -20.234375 26.125 -20.234375 L 20.421875 -20.234375 C 19.753906 -20.234375 19.421875 -20.351562 19.421875 -20.59375 L 19.421875 -20.9375 C 19.421875 -21.789062 18.992188 -22.507812 18.140625 -23.09375 C 17.285156 -23.675781 16.140625 -23.96875 14.703125 -23.96875 C 13.421875 -23.96875 12.359375 -23.734375 11.515625 -23.265625 C 10.679688 -22.804688 10.265625 -22.164062 10.265625 -21.34375 C 10.265625 -20.570312 10.660156 -19.988281 11.453125 -19.59375 C 12.253906 -19.207031 13.570312 -18.800781 15.40625 -18.375 C 16.53125 -18.132812 17.617188 -17.84375 18.671875 -17.5 C 21.460938 -16.6875 23.65625 -15.632812 25.25 -14.34375 C 26.84375 -13.0625 27.640625 -11.195312 27.640625 -8.75 C 27.640625 -5.875 26.492188 -3.628906 24.203125 -2.015625 C 21.910156 -0.398438 18.835938 0.40625 14.984375 0.40625 Z M 14.984375 0.40625 "/></g></g></g><g fill="#0a253e" fill-opacity="0.4"><g transform="translate(189.936146, 274.416465)"><g><path d="M 20.234375 -24.375 C 20.234375 -23.71875 19.90625 -23.390625 19.25 -23.390625 L 14 -23.390625 C 13.769531 -23.390625 13.65625 -23.273438 13.65625 -23.046875 L 13.65625 -10.96875 C 13.65625 -9.6875 13.914062 -8.742188 14.4375 -8.140625 C 14.957031 -7.535156 15.800781 -7.234375 16.96875 -7.234375 L 18.609375 -7.234375 C 19.265625 -7.234375 19.59375 -6.898438 19.59375 -6.234375 L 19.59375 -1.21875 C 19.59375 -0.601562 19.265625 -0.253906 18.609375 -0.171875 C 17.128906 -0.0976562 16.0625 -0.0625 15.40625 -0.0625 C 12.175781 -0.0625 9.765625 -0.601562 8.171875 -1.6875 C 6.578125 -2.78125 5.757812 -4.800781 5.71875 -7.75 L 5.71875 -23.046875 C 5.71875 -23.273438 5.597656 -23.390625 5.359375 -23.390625 L 2.390625 -23.390625 C 1.734375 -23.390625 1.40625 -23.71875 1.40625 -24.375 L 1.40625 -28.984375 C 1.40625 -29.648438 1.734375 -29.984375 2.390625 -29.984375 L 5.359375 -29.984375 C 5.597656 -29.984375 5.71875 -30.097656 5.71875 -30.328125 L 5.71875 -36.921875 C 5.71875 -37.578125 6.046875 -37.90625 6.703125 -37.90625 L 12.65625 -37.90625 C 13.320312 -37.90625 13.65625 -37.578125 13.65625 -36.921875 L 13.65625 -30.328125 C 13.65625 -30.097656 13.769531 -29.984375 14 -29.984375 L 19.25 -29.984375 C 19.90625 -29.984375 20.234375 -29.648438 20.234375 -28.984375 Z M 20.234375 -24.375 "/></g></g></g><g fill="#0a253e" fill-opacity="0.4"><g transform="translate(214.373458, 274.416465)"><g><path d="M 17.96875 -30.390625 C 19.207031 -30.390625 20.238281 -30.15625 21.0625 -29.6875 C 21.519531 -29.457031 21.691406 -29.050781 21.578125 -28.46875 L 20.46875 -22.34375 C 20.4375 -21.988281 20.332031 -21.769531 20.15625 -21.6875 C 19.976562 -21.613281 19.695312 -21.617188 19.3125 -21.703125 C 18.6875 -21.859375 18.117188 -21.9375 17.609375 -21.9375 C 17.335938 -21.9375 16.894531 -21.894531 16.28125 -21.8125 C 14.875 -21.695312 13.679688 -21.179688 12.703125 -20.265625 C 11.734375 -19.347656 11.25 -18.132812 11.25 -16.625 L 11.25 -0.984375 C 11.25 -0.328125 10.921875 0 10.265625 0 L 4.03125 0 C 3.363281 0 3.03125 -0.328125 3.03125 -0.984375 L 3.03125 -28.984375 C 3.03125 -29.648438 3.363281 -29.984375 4.03125 -29.984375 L 10.265625 -29.984375 C 10.921875 -29.984375 11.25 -29.648438 11.25 -28.984375 L 11.25 -27.1875 C 11.25 -27.03125 11.285156 -26.929688 11.359375 -26.890625 C 11.441406 -26.847656 11.546875 -26.882812 11.671875 -27 C 13.222656 -29.257812 15.320312 -30.390625 17.96875 -30.390625 Z M 17.96875 -30.390625 "/></g></g></g><g fill="#0a253e" fill-opacity="0.4"><g transform="translate(238.985742, 274.416465)"><g><path d="M 29.8125 0 C 29.257812 0 28.890625 -0.269531 28.703125 -0.8125 L 27.0625 -6.234375 C 27.019531 -6.429688 26.90625 -6.53125 26.71875 -6.53125 L 12.421875 -6.53125 C 12.222656 -6.53125 12.109375 -6.429688 12.078125 -6.234375 L 10.4375 -0.8125 C 10.25 -0.269531 9.878906 0 9.328125 0 L 2.5625 0 C 2.21875 0 1.96875 -0.101562 1.8125 -0.3125 C 1.65625 -0.53125 1.632812 -0.796875 1.75 -1.109375 L 14.171875 -40.015625 C 14.367188 -40.554688 14.738281 -40.828125 15.28125 -40.828125 L 23.859375 -40.828125 C 24.398438 -40.828125 24.769531 -40.554688 24.96875 -40.015625 L 37.390625 -1.109375 C 37.429688 -1.023438 37.453125 -0.910156 37.453125 -0.765625 C 37.453125 -0.523438 37.375 -0.335938 37.21875 -0.203125 C 37.0625 -0.0664062 36.847656 0 36.578125 0 Z M 14.109375 -13.296875 C 14.078125 -13.023438 14.175781 -12.890625 14.40625 -12.890625 L 24.734375 -12.890625 C 24.960938 -12.890625 25.054688 -13.023438 25.015625 -13.296875 L 19.765625 -31.09375 C 19.734375 -31.25 19.664062 -31.328125 19.5625 -31.328125 C 19.46875 -31.328125 19.382812 -31.25 19.3125 -31.09375 Z M 14.109375 -13.296875 "/></g></g></g><g fill="#0a253e" fill-opacity="0.4"><g transform="translate(280.394557, 274.416465)"><g><path d="M 29.859375 -21.875 C 30.523438 -20.007812 30.859375 -17.675781 30.859375 -14.875 C 30.859375 -12 30.488281 -9.585938 29.75 -7.640625 C 28.894531 -5.148438 27.484375 -3.164062 25.515625 -1.6875 C 23.554688 -0.207031 21.253906 0.53125 18.609375 0.53125 C 15.734375 0.53125 13.515625 -0.421875 11.953125 -2.328125 C 11.878906 -2.453125 11.789062 -2.492188 11.6875 -2.453125 C 11.59375 -2.410156 11.546875 -2.3125 11.546875 -2.15625 L 11.546875 9.859375 C 11.546875 10.515625 11.21875 10.84375 10.5625 10.84375 L 4.3125 10.84375 C 3.65625 10.84375 3.328125 10.515625 3.328125 9.859375 L 3.328125 -28.984375 C 3.328125 -29.648438 3.65625 -29.984375 4.3125 -29.984375 L 10.5625 -29.984375 C 11.21875 -29.984375 11.546875 -29.648438 11.546875 -28.984375 L 11.546875 -27.421875 C 11.546875 -27.265625 11.59375 -27.175781 11.6875 -27.15625 C 11.789062 -27.132812 11.878906 -27.179688 11.953125 -27.296875 C 13.546875 -29.398438 15.765625 -30.453125 18.609375 -30.453125 C 21.253906 -30.453125 23.597656 -29.660156 25.640625 -28.078125 C 27.679688 -26.503906 29.085938 -24.4375 29.859375 -21.875 Z M 20.828125 -8.921875 C 21.753906 -10.472656 22.21875 -12.515625 22.21875 -15.046875 C 22.21875 -17.335938 21.8125 -19.242188 21 -20.765625 C 20.0625 -22.429688 18.640625 -23.265625 16.734375 -23.265625 C 15.023438 -23.265625 13.707031 -22.429688 12.78125 -20.765625 C 12 -19.328125 11.609375 -17.398438 11.609375 -14.984375 C 11.609375 -12.460938 12.015625 -10.460938 12.828125 -8.984375 C 13.804688 -7.460938 15.109375 -6.703125 16.734375 -6.703125 C 18.523438 -6.703125 19.890625 -7.441406 20.828125 -8.921875 Z M 20.828125 -8.921875 "/></g></g></g><g fill="#0a253e" fill-opacity="0.4"><g transform="translate(315.271398, 274.416465)"><g><path d="M 29.859375 -21.875 C 30.523438 -20.007812 30.859375 -17.675781 30.859375 -14.875 C 30.859375 -12 30.488281 -9.585938 29.75 -7.640625 C 28.894531 -5.148438 27.484375 -3.164062 25.515625 -1.6875 C 23.554688 -0.207031 21.253906 0.53125 18.609375 0.53125 C 15.734375 0.53125 13.515625 -0.421875 11.953125 -2.328125 C 11.878906 -2.453125 11.789062 -2.492188 11.6875 -2.453125 C 11.59375 -2.410156 11.546875 -2.3125 11.546875 -2.15625 L 11.546875 9.859375 C 11.546875 10.515625 11.21875 10.84375 10.5625 10.84375 L 4.3125 10.84375 C 3.65625 10.84375 3.328125 10.515625 3.328125 9.859375 L 3.328125 -28.984375 C 3.328125 -29.648438 3.65625 -29.984375 4.3125 -29.984375 L 10.5625 -29.984375 C 11.21875 -29.984375 11.546875 -29.648438 11.546875 -28.984375 L 11.546875 -27.421875 C 11.546875 -27.265625 11.59375 -27.175781 11.6875 -27.15625 C 11.789062 -27.132812 11.878906 -27.179688 11.953125 -27.296875 C 13.546875 -29.398438 15.765625 -30.453125 18.609375 -30.453125 C 21.253906 -30.453125 23.597656 -29.660156 25.640625 -28.078125 C 27.679688 -26.503906 29.085938 -24.4375 29.859375 -21.875 Z M 20.828125 -8.921875 C 21.753906 -10.472656 22.21875 -12.515625 22.21875 -15.046875 C 22.21875 -17.335938 21.8125 -19.242188 21 -20.765625 C 20.0625 -22.429688 18.640625 -23.265625 16.734375 -23.265625 C 15.023438 -23.265625 13.707031 -22.429688 12.78125 -20.765625 C 12 -19.328125 11.609375 -17.398438 11.609375 -14.984375 C 11.609375 -12.460938 12.015625 -10.460938 12.828125 -8.984375 C 13.804688 -7.460938 15.109375 -6.703125 16.734375 -6.703125 C 18.523438 -6.703125 19.890625 -7.441406 20.828125 -8.921875 Z M 20.828125 -8.921875 "/></g></g></g><g fill="#0a253e" fill-opacity="1"><g transform="translate(30.51994, 271.013193)"><g><path d="M 26.1875 0 C 25.6875 0 25.296875 -0.253906 25.015625 -0.765625 L 17.84375 -16.625 C 17.769531 -16.820312 17.632812 -16.921875 17.4375 -16.921875 L 12.125 -16.921875 C 11.894531 -16.921875 11.78125 -16.800781 11.78125 -16.5625 L 11.78125 -0.984375 C 11.78125 -0.328125 11.453125 0 10.796875 0 L 4.546875 0 C 3.890625 0 3.5625 -0.328125 3.5625 -0.984375 L 3.5625 -39.890625 C 3.5625 -40.554688 3.890625 -40.890625 4.546875 -40.890625 L 20.9375 -40.890625 C 23.425781 -40.890625 25.613281 -40.375 27.5 -39.34375 C 29.382812 -38.3125 30.84375 -36.863281 31.875 -35 C 32.90625 -33.132812 33.421875 -30.992188 33.421875 -28.578125 C 33.421875 -25.929688 32.757812 -23.65625 31.4375 -21.75 C 30.113281 -19.84375 28.285156 -18.503906 25.953125 -17.734375 C 25.835938 -17.691406 25.757812 -17.617188 25.71875 -17.515625 C 25.6875 -17.421875 25.707031 -17.335938 25.78125 -17.265625 L 33.484375 -1.171875 C 33.597656 -1.015625 33.65625 -0.835938 33.65625 -0.640625 C 33.65625 -0.441406 33.578125 -0.285156 33.421875 -0.171875 C 33.265625 -0.0546875 33.050781 0 32.78125 0 Z M 12.125 -33.765625 C 11.894531 -33.765625 11.78125 -33.648438 11.78125 -33.421875 L 11.78125 -23.625 C 11.78125 -23.382812 11.894531 -23.265625 12.125 -23.265625 L 19.71875 -23.265625 C 21.351562 -23.265625 22.679688 -23.738281 23.703125 -24.6875 C 24.734375 -25.644531 25.25 -26.90625 25.25 -28.46875 C 25.25 -30.019531 24.734375 -31.289062 23.703125 -32.28125 C 22.679688 -33.269531 21.351562 -33.765625 19.71875 -33.765625 Z M 12.125 -33.765625 "/></g></g></g><g fill="#0a253e" fill-opacity="1"><g transform="translate(68.604448, 271.013193)"><g><path d="M 17.5 -6.46875 C 20.0625 -6.59375 22.023438 -7.488281 23.390625 -9.15625 C 23.617188 -9.425781 23.867188 -9.5625 24.140625 -9.5625 C 24.378906 -9.5625 24.597656 -9.46875 24.796875 -9.28125 L 28.109375 -6.0625 C 28.347656 -5.832031 28.46875 -5.597656 28.46875 -5.359375 C 28.46875 -5.085938 28.390625 -4.859375 28.234375 -4.671875 C 26.953125 -3.078125 25.304688 -1.820312 23.296875 -0.90625 C 21.296875 0.0078125 19.109375 0.46875 16.734375 0.46875 C 13.160156 0.46875 10.195312 -0.441406 7.84375 -2.265625 C 5.488281 -4.097656 3.90625 -6.609375 3.09375 -9.796875 C 2.625 -11.503906 2.390625 -13.3125 2.390625 -15.21875 C 2.390625 -17.476562 2.601562 -19.382812 3.03125 -20.9375 C 3.8125 -23.8125 5.375 -26.125 7.71875 -27.875 C 10.070312 -29.625 12.863281 -30.5 16.09375 -30.5 C 19.90625 -30.5 22.925781 -29.367188 25.15625 -27.109375 C 27.394531 -24.859375 28.847656 -21.691406 29.515625 -17.609375 C 29.671875 -16.328125 29.785156 -14.910156 29.859375 -13.359375 C 29.859375 -12.691406 29.53125 -12.359375 28.875 -12.359375 L 10.96875 -12.359375 C 10.726562 -12.359375 10.609375 -12.242188 10.609375 -12.015625 C 10.734375 -11.203125 10.875 -10.597656 11.03125 -10.203125 C 11.414062 -9.003906 12.179688 -8.082031 13.328125 -7.4375 C 14.472656 -6.789062 15.863281 -6.46875 17.5 -6.46875 Z M 15.984375 -23.390625 C 14.734375 -23.390625 13.691406 -23.085938 12.859375 -22.484375 C 12.023438 -21.878906 11.453125 -21.035156 11.140625 -19.953125 C 10.941406 -19.210938 10.828125 -18.722656 10.796875 -18.484375 C 10.753906 -18.253906 10.847656 -18.140625 11.078125 -18.140625 L 21 -18.140625 C 21.195312 -18.140625 21.296875 -18.21875 21.296875 -18.375 C 21.296875 -18.800781 21.21875 -19.25 21.0625 -19.71875 C 20.707031 -20.84375 20.101562 -21.734375 19.25 -22.390625 C 18.394531 -23.054688 17.304688 -23.390625 15.984375 -23.390625 Z M 15.984375 -23.390625 "/></g></g></g><g fill="#0a253e" fill-opacity="1"><g transform="translate(102.781421, 271.013193)"><g><path d="M 21.34375 -28.984375 C 21.34375 -29.648438 21.675781 -29.984375 22.34375 -29.984375 L 28.578125 -29.984375 C 29.242188 -29.984375 29.578125 -29.648438 29.578125 -28.984375 L 29.578125 -2.6875 C 29.578125 2.40625 28.117188 6.039062 25.203125 8.21875 C 22.285156 10.394531 18.53125 11.484375 13.9375 11.484375 C 12.65625 11.484375 11.195312 11.390625 9.5625 11.203125 C 8.976562 11.160156 8.6875 10.8125 8.6875 10.15625 L 8.921875 4.71875 C 8.921875 4.414062 9.023438 4.175781 9.234375 4 C 9.453125 3.820312 9.71875 3.769531 10.03125 3.84375 C 11.46875 4.039062 12.65625 4.140625 13.59375 4.140625 C 16.082031 4.140625 17.992188 3.59375 19.328125 2.5 C 20.671875 1.414062 21.34375 -0.328125 21.34375 -2.734375 C 21.34375 -2.859375 21.300781 -2.925781 21.21875 -2.9375 C 21.144531 -2.957031 21.050781 -2.910156 20.9375 -2.796875 C 19.5 -1.242188 17.363281 -0.46875 14.53125 -0.46875 C 12 -0.46875 9.671875 -1.078125 7.546875 -2.296875 C 5.429688 -3.523438 3.925781 -5.5 3.03125 -8.21875 C 2.445312 -10.007812 2.15625 -12.328125 2.15625 -15.171875 C 2.15625 -18.203125 2.503906 -20.671875 3.203125 -22.578125 C 4.023438 -24.941406 5.40625 -26.84375 7.34375 -28.28125 C 9.289062 -29.726562 11.546875 -30.453125 14.109375 -30.453125 C 17.023438 -30.453125 19.300781 -29.578125 20.9375 -27.828125 C 21.050781 -27.703125 21.144531 -27.660156 21.21875 -27.703125 C 21.300781 -27.742188 21.34375 -27.84375 21.34375 -28 Z M 20.875 -10.4375 C 21.1875 -11.601562 21.34375 -13.195312 21.34375 -15.21875 C 21.34375 -16.425781 21.300781 -17.359375 21.21875 -18.015625 C 21.144531 -18.679688 21.015625 -19.304688 20.828125 -19.890625 C 20.472656 -20.941406 19.882812 -21.785156 19.0625 -22.421875 C 18.25 -23.066406 17.242188 -23.390625 16.046875 -23.390625 C 14.878906 -23.390625 13.882812 -23.066406 13.0625 -22.421875 C 12.25 -21.785156 11.644531 -20.941406 11.25 -19.890625 C 10.707031 -18.722656 10.4375 -17.148438 10.4375 -15.171875 C 10.4375 -12.992188 10.671875 -11.4375 11.140625 -10.5 C 11.492188 -9.445312 12.109375 -8.597656 12.984375 -7.953125 C 13.859375 -7.316406 14.894531 -7 16.09375 -7 C 17.34375 -7 18.375 -7.316406 19.1875 -7.953125 C 20.007812 -8.597656 20.570312 -9.425781 20.875 -10.4375 Z M 20.875 -10.4375 "/></g></g></g><g fill="#0a253e" fill-opacity="1"><g transform="translate(137.483287, 271.013193)"><g><path d="M 7.578125 -32.84375 C 6.097656 -32.84375 4.890625 -33.296875 3.953125 -34.203125 C 3.023438 -35.117188 2.5625 -36.296875 2.5625 -37.734375 C 2.5625 -39.171875 3.023438 -40.347656 3.953125 -41.265625 C 4.890625 -42.179688 6.097656 -42.640625 7.578125 -42.640625 C 9.097656 -42.640625 10.3125 -42.191406 11.21875 -41.296875 C 12.132812 -40.398438 12.59375 -39.210938 12.59375 -37.734375 C 12.59375 -36.253906 12.132812 -35.066406 11.21875 -34.171875 C 10.3125 -33.285156 9.097656 -32.84375 7.578125 -32.84375 Z M 4.484375 0 C 3.828125 0 3.5 -0.328125 3.5 -0.984375 L 3.5 -28.984375 C 3.5 -29.648438 3.828125 -29.984375 4.484375 -29.984375 L 10.734375 -29.984375 C 11.390625 -29.984375 11.71875 -29.648438 11.71875 -28.984375 L 11.71875 -0.984375 C 11.71875 -0.328125 11.390625 0 10.734375 0 Z M 4.484375 0 "/></g></g></g><g fill="#0a253e" fill-opacity="1"><g transform="translate(154.922048, 271.013193)"><g><path d="M 14.984375 0.40625 C 12.378906 0.40625 10.101562 0.0351562 8.15625 -0.703125 C 6.21875 -1.441406 4.722656 -2.472656 3.671875 -3.796875 C 2.617188 -5.117188 2.09375 -6.613281 2.09375 -8.28125 L 2.09375 -8.578125 C 2.09375 -9.234375 2.425781 -9.5625 3.09375 -9.5625 L 8.984375 -9.5625 C 9.640625 -9.5625 9.96875 -9.445312 9.96875 -9.21875 L 9.96875 -8.8125 C 9.96875 -7.957031 10.4375 -7.226562 11.375 -6.625 C 12.3125 -6.019531 13.5 -5.71875 14.9375 -5.71875 C 16.257812 -5.71875 17.328125 -5.96875 18.140625 -6.46875 C 18.953125 -6.976562 19.359375 -7.640625 19.359375 -8.453125 C 19.359375 -9.148438 19.007812 -9.675781 18.3125 -10.03125 C 17.613281 -10.382812 16.46875 -10.753906 14.875 -11.140625 C 12.96875 -11.648438 11.546875 -12.097656 10.609375 -12.484375 C 8.085938 -13.335938 6.085938 -14.382812 4.609375 -15.625 C 3.128906 -16.875 2.390625 -18.664062 2.390625 -21 C 2.390625 -23.875 3.515625 -26.15625 5.765625 -27.84375 C 8.023438 -29.539062 10.984375 -30.390625 14.640625 -30.390625 C 17.128906 -30.390625 19.316406 -29.988281 21.203125 -29.1875 C 23.085938 -28.394531 24.546875 -27.28125 25.578125 -25.84375 C 26.609375 -24.40625 27.125 -22.769531 27.125 -20.9375 C 27.125 -20.738281 27.035156 -20.570312 26.859375 -20.4375 C 26.679688 -20.300781 26.4375 -20.234375 26.125 -20.234375 L 20.421875 -20.234375 C 19.753906 -20.234375 19.421875 -20.351562 19.421875 -20.59375 L 19.421875 -20.9375 C 19.421875 -21.789062 18.992188 -22.507812 18.140625 -23.09375 C 17.285156 -23.675781 16.140625 -23.96875 14.703125 -23.96875 C 13.421875 -23.96875 12.359375 -23.734375 11.515625 -23.265625 C 10.679688 -22.804688 10.265625 -22.164062 10.265625 -21.34375 C 10.265625 -20.570312 10.660156 -19.988281 11.453125 -19.59375 C 12.253906 -19.207031 13.570312 -18.800781 15.40625 -18.375 C 16.53125 -18.132812 17.617188 -17.84375 18.671875 -17.5 C 21.460938 -16.6875 23.65625 -15.632812 25.25 -14.34375 C 26.84375 -13.0625 27.640625 -11.195312 27.640625 -8.75 C 27.640625 -5.875 26.492188 -3.628906 24.203125 -2.015625 C 21.910156 -0.398438 18.835938 0.40625 14.984375 0.40625 Z M 14.984375 0.40625 "/></g></g></g><g fill="#0a253e" fill-opacity="1"><g transform="translate(186.532874, 271.013193)"><g><path d="M 20.234375 -24.375 C 20.234375 -23.71875 19.90625 -23.390625 19.25 -23.390625 L 14 -23.390625 C 13.769531 -23.390625 13.65625 -23.273438 13.65625 -23.046875 L 13.65625 -10.96875 C 13.65625 -9.6875 13.914062 -8.742188 14.4375 -8.140625 C 14.957031 -7.535156 15.800781 -7.234375 16.96875 -7.234375 L 18.609375 -7.234375 C 19.265625 -7.234375 19.59375 -6.898438 19.59375 -6.234375 L 19.59375 -1.21875 C 19.59375 -0.601562 19.265625 -0.253906 18.609375 -0.171875 C 17.128906 -0.0976562 16.0625 -0.0625 15.40625 -0.0625 C 12.175781 -0.0625 9.765625 -0.601562 8.171875 -1.6875 C 6.578125 -2.78125 5.757812 -4.800781 5.71875 -7.75 L 5.71875 -23.046875 C 5.71875 -23.273438 5.597656 -23.390625 5.359375 -23.390625 L 2.390625 -23.390625 C 1.734375 -23.390625 1.40625 -23.71875 1.40625 -24.375 L 1.40625 -28.984375 C 1.40625 -29.648438 1.734375 -29.984375 2.390625 -29.984375 L 5.359375 -29.984375 C 5.597656 -29.984375 5.71875 -30.097656 5.71875 -30.328125 L 5.71875 -36.921875 C 5.71875 -37.578125 6.046875 -37.90625 6.703125 -37.90625 L 12.65625 -37.90625 C 13.320312 -37.90625 13.65625 -37.578125 13.65625 -36.921875 L 13.65625 -30.328125 C 13.65625 -30.097656 13.769531 -29.984375 14 -29.984375 L 19.25 -29.984375 C 19.90625 -29.984375 20.234375 -29.648438 20.234375 -28.984375 Z M 20.234375 -24.375 "/></g></g></g><g fill="#0a253e" fill-opacity="1"><g transform="translate(210.970187, 271.013193)"><g><path d="M 17.96875 -30.390625 C 19.207031 -30.390625 20.238281 -30.15625 21.0625 -29.6875 C 21.519531 -29.457031 21.691406 -29.050781 21.578125 -28.46875 L 20.46875 -22.34375 C 20.4375 -21.988281 20.332031 -21.769531 20.15625 -21.6875 C 19.976562 -21.613281 19.695312 -21.617188 19.3125 -21.703125 C 18.6875 -21.859375 18.117188 -21.9375 17.609375 -21.9375 C 17.335938 -21.9375 16.894531 -21.894531 16.28125 -21.8125 C 14.875 -21.695312 13.679688 -21.179688 12.703125 -20.265625 C 11.734375 -19.347656 11.25 -18.132812 11.25 -16.625 L 11.25 -0.984375 C 11.25 -0.328125 10.921875 0 10.265625 0 L 4.03125 0 C 3.363281 0 3.03125 -0.328125 3.03125 -0.984375 L 3.03125 -28.984375 C 3.03125 -29.648438 3.363281 -29.984375 4.03125 -29.984375 L 10.265625 -29.984375 C 10.921875 -29.984375 11.25 -29.648438 11.25 -28.984375 L 11.25 -27.1875 C 11.25 -27.03125 11.285156 -26.929688 11.359375 -26.890625 C 11.441406 -26.847656 11.546875 -26.882812 11.671875 -27 C 13.222656 -29.257812 15.320312 -30.390625 17.96875 -30.390625 Z M 17.96875 -30.390625 "/></g></g></g><g fill="#0a253e" fill-opacity="1"><g transform="translate(235.582471, 271.013193)"><g><path d="M 29.8125 0 C 29.257812 0 28.890625 -0.269531 28.703125 -0.8125 L 27.0625 -6.234375 C 27.019531 -6.429688 26.90625 -6.53125 26.71875 -6.53125 L 12.421875 -6.53125 C 12.222656 -6.53125 12.109375 -6.429688 12.078125 -6.234375 L 10.4375 -0.8125 C 10.25 -0.269531 9.878906 0 9.328125 0 L 2.5625 0 C 2.21875 0 1.96875 -0.101562 1.8125 -0.3125 C 1.65625 -0.53125 1.632812 -0.796875 1.75 -1.109375 L 14.171875 -40.015625 C 14.367188 -40.554688 14.738281 -40.828125 15.28125 -40.828125 L 23.859375 -40.828125 C 24.398438 -40.828125 24.769531 -40.554688 24.96875 -40.015625 L 37.390625 -1.109375 C 37.429688 -1.023438 37.453125 -0.910156 37.453125 -0.765625 C 37.453125 -0.523438 37.375 -0.335938 37.21875 -0.203125 C 37.0625 -0.0664062 36.847656 0 36.578125 0 Z M 14.109375 -13.296875 C 14.078125 -13.023438 14.175781 -12.890625 14.40625 -12.890625 L 24.734375 -12.890625 C 24.960938 -12.890625 25.054688 -13.023438 25.015625 -13.296875 L 19.765625 -31.09375 C 19.734375 -31.25 19.664062 -31.328125 19.5625 -31.328125 C 19.46875 -31.328125 19.382812 -31.25 19.3125 -31.09375 Z M 14.109375 -13.296875 "/></g></g></g><g fill="#0a253e" fill-opacity="1"><g transform="translate(276.991286, 271.013193)"><g><path d="M 29.859375 -21.875 C 30.523438 -20.007812 30.859375 -17.675781 30.859375 -14.875 C 30.859375 -12 30.488281 -9.585938 29.75 -7.640625 C 28.894531 -5.148438 27.484375 -3.164062 25.515625 -1.6875 C 23.554688 -0.207031 21.253906 0.53125 18.609375 0.53125 C 15.734375 0.53125 13.515625 -0.421875 11.953125 -2.328125 C 11.878906 -2.453125 11.789062 -2.492188 11.6875 -2.453125 C 11.59375 -2.410156 11.546875 -2.3125 11.546875 -2.15625 L 11.546875 9.859375 C 11.546875 10.515625 11.21875 10.84375 10.5625 10.84375 L 4.3125 10.84375 C 3.65625 10.84375 3.328125 10.515625 3.328125 9.859375 L 3.328125 -28.984375 C 3.328125 -29.648438 3.65625 -29.984375 4.3125 -29.984375 L 10.5625 -29.984375 C 11.21875 -29.984375 11.546875 -29.648438 11.546875 -28.984375 L 11.546875 -27.421875 C 11.546875 -27.265625 11.59375 -27.175781 11.6875 -27.15625 C 11.789062 -27.132812 11.878906 -27.179688 11.953125 -27.296875 C 13.546875 -29.398438 15.765625 -30.453125 18.609375 -30.453125 C 21.253906 -30.453125 23.597656 -29.660156 25.640625 -28.078125 C 27.679688 -26.503906 29.085938 -24.4375 29.859375 -21.875 Z M 20.828125 -8.921875 C 21.753906 -10.472656 22.21875 -12.515625 22.21875 -15.046875 C 22.21875 -17.335938 21.8125 -19.242188 21 -20.765625 C 20.0625 -22.429688 18.640625 -23.265625 16.734375 -23.265625 C 15.023438 -23.265625 13.707031 -22.429688 12.78125 -20.765625 C 12 -19.328125 11.609375 -17.398438 11.609375 -14.984375 C 11.609375 -12.460938 12.015625 -10.460938 12.828125 -8.984375 C 13.804688 -7.460938 15.109375 -6.703125 16.734375 -6.703125 C 18.523438 -6.703125 19.890625 -7.441406 20.828125 -8.921875 Z M 20.828125 -8.921875 "/></g></g></g><g fill="#0a253e" fill-opacity="1"><g transform="translate(311.868127, 271.013193)"><g><path d="M 29.859375 -21.875 C 30.523438 -20.007812 30.859375 -17.675781 30.859375 -14.875 C 30.859375 -12 30.488281 -9.585938 29.75 -7.640625 C 28.894531 -5.148438 27.484375 -3.164062 25.515625 -1.6875 C 23.554688 -0.207031 21.253906 0.53125 18.609375 0.53125 C 15.734375 0.53125 13.515625 -0.421875 11.953125 -2.328125 C 11.878906 -2.453125 11.789062 -2.492188 11.6875 -2.453125 C 11.59375 -2.410156 11.546875 -2.3125 11.546875 -2.15625 L 11.546875 9.859375 C 11.546875 10.515625 11.21875 10.84375 10.5625 10.84375 L 4.3125 10.84375 C 3.65625 10.84375 3.328125 10.515625 3.328125 9.859375 L 3.328125 -28.984375 C 3.328125 -29.648438 3.65625 -29.984375 4.3125 -29.984375 L 10.5625 -29.984375 C 11.21875 -29.984375 11.546875 -29.648438 11.546875 -28.984375 L 11.546875 -27.421875 C 11.546875 -27.265625 11.59375 -27.175781 11.6875 -27.15625 C 11.789062 -27.132812 11.878906 -27.179688 11.953125 -27.296875 C 13.546875 -29.398438 15.765625 -30.453125 18.609375 -30.453125 C 21.253906 -30.453125 23.597656 -29.660156 25.640625 -28.078125 C 27.679688 -26.503906 29.085938 -24.4375 29.859375 -21.875 Z M 20.828125 -8.921875 C 21.753906 -10.472656 22.21875 -12.515625 22.21875 -15.046875 C 22.21875 -17.335938 21.8125 -19.242188 21 -20.765625 C 20.0625 -22.429688 18.640625 -23.265625 16.734375 -23.265625 C 15.023438 -23.265625 13.707031 -22.429688 12.78125 -20.765625 C 12 -19.328125 11.609375 -17.398438 11.609375 -14.984375 C 11.609375 -12.460938 12.015625 -10.460938 12.828125 -8.984375 C 13.804688 -7.460938 15.109375 -6.703125 16.734375 -6.703125 C 18.523438 -6.703125 19.890625 -7.441406 20.828125 -8.921875 Z M 20.828125 -8.921875 "/></g></g></g><g fill="#0a253e" fill-opacity="0.4"><g transform="translate(140.617198, 310.392663)"><g><path d="M 2.328125 0 C 2.046875 0 1.90625 -0.140625 1.90625 -0.421875 L 1.90625 -17.890625 C 1.90625 -18.171875 2.046875 -18.3125 2.328125 -18.3125 L 8.609375 -18.3125 C 9.847656 -18.3125 10.9375 -18.09375 11.875 -17.65625 C 12.8125 -17.21875 13.535156 -16.59375 14.046875 -15.78125 C 14.566406 -14.96875 14.828125 -14.023438 14.828125 -12.953125 L 14.828125 -5.359375 C 14.828125 -4.273438 14.566406 -3.328125 14.046875 -2.515625 C 13.535156 -1.710938 12.8125 -1.09375 11.875 -0.65625 C 10.9375 -0.21875 9.847656 0 8.609375 0 Z M 4.9375 -2.765625 C 4.9375 -2.660156 4.988281 -2.609375 5.09375 -2.609375 L 8.734375 -2.609375 C 9.660156 -2.609375 10.394531 -2.898438 10.9375 -3.484375 C 11.488281 -4.078125 11.773438 -4.859375 11.796875 -5.828125 L 11.796875 -12.453125 C 11.796875 -13.441406 11.515625 -14.226562 10.953125 -14.8125 C 10.398438 -15.394531 9.648438 -15.6875 8.703125 -15.6875 L 5.09375 -15.6875 C 4.988281 -15.6875 4.9375 -15.632812 4.9375 -15.53125 Z M 4.9375 -2.765625 "/></g></g></g><g fill="#0a253e" fill-opacity="0.4"><g transform="translate(156.773451, 310.392663)"><g><path d="M 9.515625 -12.953125 C 9.515625 -13.222656 9.65625 -13.359375 9.9375 -13.359375 L 12.109375 -13.359375 C 12.390625 -13.359375 12.53125 -13.222656 12.53125 -12.953125 L 12.53125 -0.421875 C 12.53125 -0.140625 12.390625 0 12.109375 0 L 9.9375 0 C 9.65625 0 9.515625 -0.140625 9.515625 -0.421875 L 9.515625 -1.09375 C 9.515625 -1.164062 9.492188 -1.207031 9.453125 -1.21875 C 9.410156 -1.238281 9.375 -1.21875 9.34375 -1.15625 C 8.644531 -0.257812 7.578125 0.1875 6.140625 0.1875 C 4.816406 0.1875 3.707031 -0.195312 2.8125 -0.96875 C 1.914062 -1.738281 1.46875 -2.828125 1.46875 -4.234375 L 1.46875 -12.953125 C 1.46875 -13.222656 1.609375 -13.359375 1.890625 -13.359375 L 4.078125 -13.359375 C 4.359375 -13.359375 4.5 -13.222656 4.5 -12.953125 L 4.5 -5.09375 C 4.5 -4.28125 4.710938 -3.628906 5.140625 -3.140625 C 5.566406 -2.648438 6.164062 -2.40625 6.9375 -2.40625 C 7.71875 -2.40625 8.34375 -2.648438 8.8125 -3.140625 C 9.28125 -3.628906 9.515625 -4.28125 9.515625 -5.09375 Z M 9.515625 -12.953125 "/></g></g></g><g fill="#0a253e" fill-opacity="0.4"><g transform="translate(170.916717, 310.392663)"><g><path d="M 7.328125 0.203125 C 5.941406 0.203125 4.753906 -0.144531 3.765625 -0.84375 C 2.773438 -1.539062 2.085938 -2.503906 1.703125 -3.734375 C 1.398438 -4.585938 1.25 -5.582031 1.25 -6.71875 C 1.25 -7.832031 1.390625 -8.828125 1.671875 -9.703125 C 2.078125 -10.921875 2.773438 -11.867188 3.765625 -12.546875 C 4.753906 -13.234375 5.945312 -13.578125 7.34375 -13.578125 C 8.675781 -13.578125 9.820312 -13.234375 10.78125 -12.546875 C 11.75 -11.867188 12.4375 -10.929688 12.84375 -9.734375 C 13.15625 -8.890625 13.3125 -7.894531 13.3125 -6.75 C 13.3125 -5.644531 13.164062 -4.648438 12.875 -3.765625 C 12.46875 -2.523438 11.773438 -1.550781 10.796875 -0.84375 C 9.828125 -0.144531 8.671875 0.203125 7.328125 0.203125 Z M 7.328125 -2.40625 C 7.972656 -2.40625 8.523438 -2.585938 8.984375 -2.953125 C 9.441406 -3.316406 9.769531 -3.832031 9.96875 -4.5 C 10.15625 -5.050781 10.25 -5.785156 10.25 -6.703125 C 10.25 -7.554688 10.160156 -8.285156 9.984375 -8.890625 C 9.796875 -9.554688 9.460938 -10.066406 8.984375 -10.421875 C 8.503906 -10.773438 7.929688 -10.953125 7.265625 -10.953125 C 6.609375 -10.953125 6.039062 -10.773438 5.5625 -10.421875 C 5.09375 -10.066406 4.765625 -9.554688 4.578125 -8.890625 C 4.398438 -8.285156 4.3125 -7.554688 4.3125 -6.703125 C 4.3125 -5.847656 4.398438 -5.113281 4.578125 -4.5 C 4.765625 -3.832031 5.097656 -3.316406 5.578125 -2.953125 C 6.054688 -2.585938 6.640625 -2.40625 7.328125 -2.40625 Z M 7.328125 -2.40625 "/></g></g></g><g fill="#0a253e" fill-opacity="0.4"><g transform="translate(185.478263, 310.392663)"><g><path d="M 7.1875 0.203125 C 5.84375 0.203125 4.679688 -0.140625 3.703125 -0.828125 C 2.734375 -1.515625 2.054688 -2.441406 1.671875 -3.609375 C 1.390625 -4.390625 1.25 -5.4375 1.25 -6.75 C 1.25 -8 1.390625 -9.023438 1.671875 -9.828125 C 2.035156 -10.984375 2.707031 -11.894531 3.6875 -12.5625 C 4.675781 -13.238281 5.84375 -13.578125 7.1875 -13.578125 C 8.550781 -13.578125 9.738281 -13.234375 10.75 -12.546875 C 11.757812 -11.867188 12.429688 -11.015625 12.765625 -9.984375 C 12.816406 -9.828125 12.867188 -9.585938 12.921875 -9.265625 L 12.921875 -9.15625 C 12.921875 -8.957031 12.804688 -8.832031 12.578125 -8.78125 L 10.40625 -8.453125 L 10.3125 -8.453125 C 10.113281 -8.453125 9.988281 -8.554688 9.9375 -8.765625 L 9.859375 -9.109375 C 9.734375 -9.628906 9.425781 -10.066406 8.9375 -10.421875 C 8.457031 -10.773438 7.875 -10.953125 7.1875 -10.953125 C 6.53125 -10.953125 5.96875 -10.78125 5.5 -10.4375 C 5.039062 -10.101562 4.734375 -9.640625 4.578125 -9.046875 C 4.398438 -8.492188 4.3125 -7.71875 4.3125 -6.71875 C 4.3125 -5.757812 4.390625 -4.984375 4.546875 -4.390625 C 4.722656 -3.785156 5.035156 -3.300781 5.484375 -2.9375 C 5.941406 -2.582031 6.507812 -2.40625 7.1875 -2.40625 C 7.851562 -2.40625 8.425781 -2.570312 8.90625 -2.90625 C 9.382812 -3.25 9.691406 -3.703125 9.828125 -4.265625 L 9.859375 -4.390625 C 9.878906 -4.484375 9.9375 -4.570312 10.03125 -4.65625 C 10.125 -4.738281 10.234375 -4.773438 10.359375 -4.765625 L 12.53125 -4.421875 C 12.757812 -4.367188 12.875 -4.242188 12.875 -4.046875 C 12.875 -3.941406 12.835938 -3.734375 12.765625 -3.421875 C 12.429688 -2.304688 11.757812 -1.421875 10.75 -0.765625 C 9.738281 -0.117188 8.550781 0.203125 7.1875 0.203125 Z M 7.1875 0.203125 "/></g></g></g><g fill="#0a253e" fill-opacity="0.4"><g transform="translate(199.360094, 310.392663)"><g/></g></g><g fill="#0a253e" fill-opacity="0.4"><g transform="translate(204.588654, 310.392663)"><g><path d="M 8.3125 0.203125 C 7.019531 0.203125 5.878906 -0.046875 4.890625 -0.546875 C 3.898438 -1.054688 3.128906 -1.773438 2.578125 -2.703125 C 2.023438 -3.640625 1.75 -4.71875 1.75 -5.9375 L 1.75 -17.890625 C 1.75 -18.171875 1.890625 -18.3125 2.171875 -18.3125 L 4.375 -18.3125 C 4.644531 -18.3125 4.78125 -18.171875 4.78125 -17.890625 L 4.78125 -5.890625 C 4.78125 -4.859375 5.101562 -4.019531 5.75 -3.375 C 6.394531 -2.726562 7.25 -2.40625 8.3125 -2.40625 C 9.375 -2.40625 10.226562 -2.726562 10.875 -3.375 C 11.519531 -4.019531 11.84375 -4.859375 11.84375 -5.890625 L 11.84375 -17.890625 C 11.84375 -18.171875 11.984375 -18.3125 12.265625 -18.3125 L 14.46875 -18.3125 C 14.75 -18.3125 14.890625 -18.171875 14.890625 -17.890625 L 14.890625 -5.9375 C 14.890625 -4.71875 14.617188 -3.640625 14.078125 -2.703125 C 13.535156 -1.773438 12.765625 -1.054688 11.765625 -0.546875 C 10.773438 -0.046875 9.625 0.203125 8.3125 0.203125 Z M 8.3125 0.203125 "/></g></g></g><g fill="#0a253e" fill-opacity="0.4"><g transform="translate(221.215482, 310.392663)"><g><path d="M 8.03125 0.203125 C 6.71875 0.203125 5.566406 -0.0507812 4.578125 -0.5625 C 3.585938 -1.070312 2.820312 -1.789062 2.28125 -2.71875 C 1.738281 -3.644531 1.46875 -4.71875 1.46875 -5.9375 L 1.46875 -12.390625 C 1.46875 -13.617188 1.738281 -14.691406 2.28125 -15.609375 C 2.820312 -16.535156 3.585938 -17.25 4.578125 -17.75 C 5.566406 -18.257812 6.71875 -18.515625 8.03125 -18.515625 C 9.320312 -18.515625 10.460938 -18.269531 11.453125 -17.78125 C 12.453125 -17.289062 13.21875 -16.601562 13.75 -15.71875 C 14.289062 -14.832031 14.5625 -13.804688 14.5625 -12.640625 C 14.5625 -12.460938 14.429688 -12.351562 14.171875 -12.3125 L 11.953125 -12.1875 L 11.84375 -12.1875 C 11.632812 -12.1875 11.53125 -12.226562 11.53125 -12.3125 L 11.53125 -12.46875 C 11.53125 -13.5 11.210938 -14.328125 10.578125 -14.953125 C 9.941406 -15.585938 9.09375 -15.90625 8.03125 -15.90625 C 6.96875 -15.90625 6.113281 -15.585938 5.46875 -14.953125 C 4.820312 -14.328125 4.5 -13.5 4.5 -12.46875 L 4.5 -5.8125 C 4.5 -4.800781 4.820312 -3.976562 5.46875 -3.34375 C 6.113281 -2.71875 6.96875 -2.40625 8.03125 -2.40625 C 9.09375 -2.40625 9.941406 -2.710938 10.578125 -3.328125 C 11.210938 -3.953125 11.53125 -4.78125 11.53125 -5.8125 C 11.53125 -5.894531 11.566406 -5.96875 11.640625 -6.03125 C 11.722656 -6.09375 11.828125 -6.113281 11.953125 -6.09375 L 14.15625 -5.984375 C 14.425781 -5.953125 14.5625 -5.910156 14.5625 -5.859375 L 14.5625 -5.734375 C 14.5625 -4.546875 14.289062 -3.5 13.75 -2.59375 C 13.21875 -1.695312 12.453125 -1.003906 11.453125 -0.515625 C 10.460938 -0.0351562 9.320312 0.203125 8.03125 0.203125 Z M 8.03125 0.203125 "/></g></g></g><g fill="#fdba31" fill-opacity="1"><g transform="translate(139.252783, 309.028249)"><g><path d="M 2.328125 0 C 2.046875 0 1.90625 -0.140625 1.90625 -0.421875 L 1.90625 -17.890625 C 1.90625 -18.171875 2.046875 -18.3125 2.328125 -18.3125 L 8.609375 -18.3125 C 9.847656 -18.3125 10.9375 -18.09375 11.875 -17.65625 C 12.8125 -17.21875 13.535156 -16.59375 14.046875 -15.78125 C 14.566406 -14.96875 14.828125 -14.023438 14.828125 -12.953125 L 14.828125 -5.359375 C 14.828125 -4.273438 14.566406 -3.328125 14.046875 -2.515625 C 13.535156 -1.710938 12.8125 -1.09375 11.875 -0.65625 C 10.9375 -0.21875 9.847656 0 8.609375 0 Z M 4.9375 -2.765625 C 4.9375 -2.660156 4.988281 -2.609375 5.09375 -2.609375 L 8.734375 -2.609375 C 9.660156 -2.609375 10.394531 -2.898438 10.9375 -3.484375 C 11.488281 -4.078125 11.773438 -4.859375 11.796875 -5.828125 L 11.796875 -12.453125 C 11.796875 -13.441406 11.515625 -14.226562 10.953125 -14.8125 C 10.398438 -15.394531 9.648438 -15.6875 8.703125 -15.6875 L 5.09375 -15.6875 C 4.988281 -15.6875 4.9375 -15.632812 4.9375 -15.53125 Z M 4.9375 -2.765625 "/></g></g></g><g fill="#fdba31" fill-opacity="1"><g transform="translate(155.409037, 309.028249)"><g><path d="M 9.515625 -12.953125 C 9.515625 -13.222656 9.65625 -13.359375 9.9375 -13.359375 L 12.109375 -13.359375 C 12.390625 -13.359375 12.53125 -13.222656 12.53125 -12.953125 L 12.53125 -0.421875 C 12.53125 -0.140625 12.390625 0 12.109375 0 L 9.9375 0 C 9.65625 0 9.515625 -0.140625 9.515625 -0.421875 L 9.515625 -1.09375 C 9.515625 -1.164062 9.492188 -1.207031 9.453125 -1.21875 C 9.410156 -1.238281 9.375 -1.21875 9.34375 -1.15625 C 8.644531 -0.257812 7.578125 0.1875 6.140625 0.1875 C 4.816406 0.1875 3.707031 -0.195312 2.8125 -0.96875 C 1.914062 -1.738281 1.46875 -2.828125 1.46875 -4.234375 L 1.46875 -12.953125 C 1.46875 -13.222656 1.609375 -13.359375 1.890625 -13.359375 L 4.078125 -13.359375 C 4.359375 -13.359375 4.5 -13.222656 4.5 -12.953125 L 4.5 -5.09375 C 4.5 -4.28125 4.710938 -3.628906 5.140625 -3.140625 C 5.566406 -2.648438 6.164062 -2.40625 6.9375 -2.40625 C 7.71875 -2.40625 8.34375 -2.648438 8.8125 -3.140625 C 9.28125 -3.628906 9.515625 -4.28125 9.515625 -5.09375 Z M 9.515625 -12.953125 "/></g></g></g><g fill="#fdba31" fill-opacity="1"><g transform="translate(169.552303, 309.028249)"><g><path d="M 7.328125 0.203125 C 5.941406 0.203125 4.753906 -0.144531 3.765625 -0.84375 C 2.773438 -1.539062 2.085938 -2.503906 1.703125 -3.734375 C 1.398438 -4.585938 1.25 -5.582031 1.25 -6.71875 C 1.25 -7.832031 1.390625 -8.828125 1.671875 -9.703125 C 2.078125 -10.921875 2.773438 -11.867188 3.765625 -12.546875 C 4.753906 -13.234375 5.945312 -13.578125 7.34375 -13.578125 C 8.675781 -13.578125 9.820312 -13.234375 10.78125 -12.546875 C 11.75 -11.867188 12.4375 -10.929688 12.84375 -9.734375 C 13.15625 -8.890625 13.3125 -7.894531 13.3125 -6.75 C 13.3125 -5.644531 13.164062 -4.648438 12.875 -3.765625 C 12.46875 -2.523438 11.773438 -1.550781 10.796875 -0.84375 C 9.828125 -0.144531 8.671875 0.203125 7.328125 0.203125 Z M 7.328125 -2.40625 C 7.972656 -2.40625 8.523438 -2.585938 8.984375 -2.953125 C 9.441406 -3.316406 9.769531 -3.832031 9.96875 -4.5 C 10.15625 -5.050781 10.25 -5.785156 10.25 -6.703125 C 10.25 -7.554688 10.160156 -8.285156 9.984375 -8.890625 C 9.796875 -9.554688 9.460938 -10.066406 8.984375 -10.421875 C 8.503906 -10.773438 7.929688 -10.953125 7.265625 -10.953125 C 6.609375 -10.953125 6.039062 -10.773438 5.5625 -10.421875 C 5.09375 -10.066406 4.765625 -9.554688 4.578125 -8.890625 C 4.398438 -8.285156 4.3125 -7.554688 4.3125 -6.703125 C 4.3125 -5.847656 4.398438 -5.113281 4.578125 -4.5 C 4.765625 -3.832031 5.097656 -3.316406 5.578125 -2.953125 C 6.054688 -2.585938 6.640625 -2.40625 7.328125 -2.40625 Z M 7.328125 -2.40625 "/></g></g></g><g fill="#fdba31" fill-opacity="1"><g transform="translate(184.113848, 309.028249)"><g><path d="M 7.1875 0.203125 C 5.84375 0.203125 4.679688 -0.140625 3.703125 -0.828125 C 2.734375 -1.515625 2.054688 -2.441406 1.671875 -3.609375 C 1.390625 -4.390625 1.25 -5.4375 1.25 -6.75 C 1.25 -8 1.390625 -9.023438 1.671875 -9.828125 C 2.035156 -10.984375 2.707031 -11.894531 3.6875 -12.5625 C 4.675781 -13.238281 5.84375 -13.578125 7.1875 -13.578125 C 8.550781 -13.578125 9.738281 -13.234375 10.75 -12.546875 C 11.757812 -11.867188 12.429688 -11.015625 12.765625 -9.984375 C 12.816406 -9.828125 12.867188 -9.585938 12.921875 -9.265625 L 12.921875 -9.15625 C 12.921875 -8.957031 12.804688 -8.832031 12.578125 -8.78125 L 10.40625 -8.453125 L 10.3125 -8.453125 C 10.113281 -8.453125 9.988281 -8.554688 9.9375 -8.765625 L 9.859375 -9.109375 C 9.734375 -9.628906 9.425781 -10.066406 8.9375 -10.421875 C 8.457031 -10.773438 7.875 -10.953125 7.1875 -10.953125 C 6.53125 -10.953125 5.96875 -10.78125 5.5 -10.4375 C 5.039062 -10.101562 4.734375 -9.640625 4.578125 -9.046875 C 4.398438 -8.492188 4.3125 -7.71875 4.3125 -6.71875 C 4.3125 -5.757812 4.390625 -4.984375 4.546875 -4.390625 C 4.722656 -3.785156 5.035156 -3.300781 5.484375 -2.9375 C 5.941406 -2.582031 6.507812 -2.40625 7.1875 -2.40625 C 7.851562 -2.40625 8.425781 -2.570312 8.90625 -2.90625 C 9.382812 -3.25 9.691406 -3.703125 9.828125 -4.265625 L 9.859375 -4.390625 C 9.878906 -4.484375 9.9375 -4.570312 10.03125 -4.65625 C 10.125 -4.738281 10.234375 -4.773438 10.359375 -4.765625 L 12.53125 -4.421875 C 12.757812 -4.367188 12.875 -4.242188 12.875 -4.046875 C 12.875 -3.941406 12.835938 -3.734375 12.765625 -3.421875 C 12.429688 -2.304688 11.757812 -1.421875 10.75 -0.765625 C 9.738281 -0.117188 8.550781 0.203125 7.1875 0.203125 Z M 7.1875 0.203125 "/></g></g></g><g fill="#fdba31" fill-opacity="1"><g transform="translate(197.99568, 309.028249)"><g/></g></g><g fill="#fdba31" fill-opacity="1"><g transform="translate(203.224239, 309.028249)"><g><path d="M 8.3125 0.203125 C 7.019531 0.203125 5.878906 -0.046875 4.890625 -0.546875 C 3.898438 -1.054688 3.128906 -1.773438 2.578125 -2.703125 C 2.023438 -3.640625 1.75 -4.71875 1.75 -5.9375 L 1.75 -17.890625 C 1.75 -18.171875 1.890625 -18.3125 2.171875 -18.3125 L 4.375 -18.3125 C 4.644531 -18.3125 4.78125 -18.171875 4.78125 -17.890625 L 4.78125 -5.890625 C 4.78125 -4.859375 5.101562 -4.019531 5.75 -3.375 C 6.394531 -2.726562 7.25 -2.40625 8.3125 -2.40625 C 9.375 -2.40625 10.226562 -2.726562 10.875 -3.375 C 11.519531 -4.019531 11.84375 -4.859375 11.84375 -5.890625 L 11.84375 -17.890625 C 11.84375 -18.171875 11.984375 -18.3125 12.265625 -18.3125 L 14.46875 -18.3125 C 14.75 -18.3125 14.890625 -18.171875 14.890625 -17.890625 L 14.890625 -5.9375 C 14.890625 -4.71875 14.617188 -3.640625 14.078125 -2.703125 C 13.535156 -1.773438 12.765625 -1.054688 11.765625 -0.546875 C 10.773438 -0.046875 9.625 0.203125 8.3125 0.203125 Z M 8.3125 0.203125 "/></g></g></g><g fill="#fdba31" fill-opacity="1"><g transform="translate(219.851067, 309.028249)"><g><path d="M 8.03125 0.203125 C 6.71875 0.203125 5.566406 -0.0507812 4.578125 -0.5625 C 3.585938 -1.070312 2.820312 -1.789062 2.28125 -2.71875 C 1.738281 -3.644531 1.46875 -4.71875 1.46875 -5.9375 L 1.46875 -12.390625 C 1.46875 -13.617188 1.738281 -14.691406 2.28125 -15.609375 C 2.820312 -16.535156 3.585938 -17.25 4.578125 -17.75 C 5.566406 -18.257812 6.71875 -18.515625 8.03125 -18.515625 C 9.320312 -18.515625 10.460938 -18.269531 11.453125 -17.78125 C 12.453125 -17.289062 13.21875 -16.601562 13.75 -15.71875 C 14.289062 -14.832031 14.5625 -13.804688 14.5625 -12.640625 C 14.5625 -12.460938 14.429688 -12.351562 14.171875 -12.3125 L 11.953125 -12.1875 L 11.84375 -12.1875 C 11.632812 -12.1875 11.53125 -12.226562 11.53125 -12.3125 L 11.53125 -12.46875 C 11.53125 -13.5 11.210938 -14.328125 10.578125 -14.953125 C 9.941406 -15.585938 9.09375 -15.90625 8.03125 -15.90625 C 6.96875 -15.90625 6.113281 -15.585938 5.46875 -14.953125 C 4.820312 -14.328125 4.5 -13.5 4.5 -12.46875 L 4.5 -5.8125 C 4.5 -4.800781 4.820312 -3.976562 5.46875 -3.34375 C 6.113281 -2.71875 6.96875 -2.40625 8.03125 -2.40625 C 9.09375 -2.40625 9.941406 -2.710938 10.578125 -3.328125 C 11.210938 -3.953125 11.53125 -4.78125 11.53125 -5.8125 C 11.53125 -5.894531 11.566406 -5.96875 11.640625 -6.03125 C 11.722656 -6.09375 11.828125 -6.113281 11.953125 -6.09375 L 14.15625 -5.984375 C 14.425781 -5.953125 14.5625 -5.910156 14.5625 -5.859375 L 14.5625 -5.734375 C 14.5625 -4.546875 14.289062 -3.5 13.75 -2.59375 C 13.21875 -1.695312 12.453125 -1.003906 11.453125 -0.515625 C 10.460938 -0.0351562 9.320312 0.203125 8.03125 0.203125 Z M 8.03125 0.203125 "/></g></g></g></svg>